<svg xmlns="http://www.w3.org/2000/svg" width="512" height="512" viewBox="0 0 512 512" role="img" aria-labelledby="title desc">
  <title id="title">LanGame Server Manager</title>
  <desc id="desc">LanGame gamepad and server symbol without lettering.</desc>
  <defs>
    <mask id="icon-cutouts" maskUnits="userSpaceOnUse" x="0" y="0" width="536" height="222">
      <rect width="536" height="222" fill="#FFF"/>
      <g fill="#000">
        <rect x="61" y="71" width="27" height="82" rx="4"/>
        <rect x="34" y="98" width="80" height="27" rx="4"/>
        <circle cx="196" cy="35" r="11"/>
        <circle cx="196" cy="112" r="11"/>
        <circle cx="196" cy="189" r="11"/>
        <circle cx="463" cy="82" r="16"/>
        <circle cx="434" cy="111" r="16"/>
        <circle cx="492" cy="111" r="16"/>
        <circle cx="463" cy="139" r="16"/>
      </g>
    </mask>
  </defs>
  <g transform="translate(8 153.28) scale(.925373)" fill="#F5F7FA" mask="url(#icon-cutouts)">
    <path d="M145 0H83C37 0 0 37 0 83v56c0 46 37 83 83 83h62z"/>
    <rect x="162" width="212" height="68" rx="10"/>
    <rect x="162" y="80" width="212" height="65" rx="10"/>
    <rect x="162" y="157" width="212" height="65" rx="10"/>
    <path d="M392 0h62c46 0 82 37 82 83v56c0 46-36 83-82 83h-62z"/>
  </g>
</svg>
